<svg width="512" height="512" viewBox="0 0 512 512" xmlns="http://www.w3.org/2000/svg" role="img" aria-labelledby="title desc">
  <title id="title">Ritual de Pareja</title>
  <desc id="desc">Corazón abstracto con brillo y degradado romántico.</desc>
  <defs>
    <radialGradient id="glow" cx="35%" cy="25%" r="75%">
      <stop offset="0" stop-color="#fff1f8"/>
      <stop offset="0.18" stop-color="#ffb45f"/>
      <stop offset="0.55" stop-color="#ff4f92"/>
      <stop offset="1" stop-color="#581139"/>
    </radialGradient>
    <linearGradient id="ring" x1="0" x2="1" y1="0" y2="1">
      <stop stop-color="#fff" stop-opacity=".72"/>
      <stop offset="1" stop-color="#fff" stop-opacity=".08"/>
    </linearGradient>
    <filter id="shadow" x="-30%" y="-30%" width="160%" height="160%">
      <feDropShadow dx="0" dy="24" stdDeviation="28" flood-color="#000" flood-opacity=".35"/>
    </filter>
  </defs>
  <rect width="512" height="512" rx="132" fill="#170812"/>
  <circle cx="256" cy="256" r="204" fill="url(#glow)" filter="url(#shadow)"/>
  <path d="M256 365c-11-10-39-33-70-61-47-43-75-70-75-113 0-39 29-70 67-70 28 0 46 15 56 29 10-14 28-29 56-29 38 0 67 31 67 70 0 43-28 70-75 113-31 28-59 51-70 61z" fill="#fff" fill-opacity=".86"/>
  <path d="M166 117c42-34 96-47 150-36" stroke="url(#ring)" stroke-width="16" stroke-linecap="round" fill="none" opacity=".75"/>
  <circle cx="190" cy="165" r="18" fill="#fff" opacity=".55"/>
</svg>
