<svg width="512" height="512" viewBox="0 0 512 512" xmlns="http://www.w3.org/2000/svg">
  <defs>
    <radialGradient id="g" cx="32%" cy="25%" r="75%">
      <stop offset="0" stop-color="#fff1f8"/>
      <stop offset="0.22" stop-color="#ffb45f"/>
      <stop offset="0.58" stop-color="#ff4f92"/>
      <stop offset="1" stop-color="#4c0f32"/>
    </radialGradient>
  </defs>
  <rect width="512" height="512" rx="128" fill="#170812"/>
  <circle cx="256" cy="256" r="202" fill="url(#g)"/>
  <path d="M256 362c-12-10-41-35-73-64-45-41-72-67-72-108 0-39 29-70 67-70 28 0 46 15 56 29 10-14 28-29 56-29 38 0 67 31 67 70 0 41-27 67-72 108-32 29-61 54-73 64z" fill="#fff" fill-opacity=".9"/>
</svg>
